REM DIRINDEX 1\2,1\3,1\4,1\5
REM DIRNAME cjc046,folder01,folder02,folder03,folder04
TITLE ""
FILE "157.mp3" MP3
  TRACK 01 AUDIO
    TITLE "0:"
    INDEX 01 00:00:00
  TRACK 02 AUDIO
    TITLE "2:cjc046_4486"
    INDEX 01 00:00:13
  TRACK 03 AUDIO
    TITLE "0:"
    INDEX 01 00:01:13
  TRACK 04 AUDIO
    TITLE "3:cjc046_4487"
    INDEX 01 00:01:38
  TRACK 05 AUDIO
    TITLE "0:"
    INDEX 01 00:02:45
  TRACK 06 AUDIO
    TITLE "4:cjc046_4488"
    INDEX 01 00:02:65
  TRACK 07 AUDIO
    TITLE "0:"
    INDEX 01 00:03:68
  TRACK 08 AUDIO
    TITLE "2:cjc046_4489"
    INDEX 01 00:05:03
  TRACK 09 AUDIO
    TITLE "0:"
    INDEX 01 00:06:28
  TRACK 10 AUDIO
    TITLE "3:cjc046_4490"
    INDEX 01 00:06:47
  TRACK 11 AUDIO
    TITLE "0:"
    INDEX 01 00:08:48
  TRACK 12 AUDIO
    TITLE "4:cjc046_4491"
    INDEX 01 00:08:60
  TRACK 13 AUDIO
    TITLE "0:"
    INDEX 01 00:10:10
  TRACK 14 AUDIO
    TITLE "2:cjc046_4492"
    INDEX 01 00:11:19
  TRACK 15 AUDIO
    TITLE "0:"
    INDEX 01 00:12:34
  TRACK 16 AUDIO
    TITLE "3:cjc046_4493"
    INDEX 01 00:12:56
  TRACK 17 AUDIO
    TITLE "0:"
    INDEX 01 00:14:51
  TRACK 18 AUDIO
    TITLE "4:cjc046_4494"
    INDEX 01 00:14:68
  TRACK 19 AUDIO
    TITLE "0:"
    INDEX 01 00:16:10
  TRACK 20 AUDIO
    TITLE "2:cjc046_4495"
    INDEX 01 00:17:20
  TRACK 21 AUDIO
    TITLE "0:"
    INDEX 01 00:18:54
  TRACK 22 AUDIO
    TITLE "3:cjc046_4496"
    INDEX 01 00:18:72
  TRACK 23 AUDIO
    TITLE "0:"
    INDEX 01 00:20:36
  TRACK 24 AUDIO
    TITLE "4:cjc046_4497"
    INDEX 01 00:20:39
  TRACK 25 AUDIO
    TITLE "0:"
    INDEX 01 00:21:74
  TRACK 26 AUDIO
    TITLE "2:cjc046_4498"
    INDEX 01 00:23:06
  TRACK 27 AUDIO
    TITLE "0:"
    INDEX 01 00:24:24
  TRACK 28 AUDIO
    TITLE "3:cjc046_4499"
    INDEX 01 00:24:51
  TRACK 29 AUDIO
    TITLE "0:"
    INDEX 01 00:26:03
  TRACK 30 AUDIO
    TITLE "4:cjc046_4500"
    INDEX 01 00:26:18
  TRACK 31 AUDIO
    TITLE "0:"
    INDEX 01 00:27:34
  TRACK 32 AUDIO
    TITLE "2:cjc046_4501"
    INDEX 01 00:28:45
  TRACK 33 AUDIO
    TITLE "0:"
    INDEX 01 00:29:70
  TRACK 34 AUDIO
    TITLE "3:cjc046_4502"
    INDEX 01 00:30:14
  TRACK 35 AUDIO
    TITLE "0:"
    INDEX 01 00:31:37
  TRACK 36 AUDIO
    TITLE "4:cjc046_4503"
    INDEX 01 00:31:57
  TRACK 37 AUDIO
    TITLE "0:"
    INDEX 01 00:33:07
  TRACK 38 AUDIO
    TITLE "2:cjc046_4504"
    INDEX 01 00:34:18
  TRACK 39 AUDIO
    TITLE "0:"
    INDEX 01 00:35:43
  TRACK 40 AUDIO
    TITLE "3:cjc046_4505"
    INDEX 01 00:35:61
  TRACK 41 AUDIO
    TITLE "0:"
    INDEX 01 00:37:16
  TRACK 42 AUDIO
    TITLE "4:cjc046_4506"
    INDEX 01 00:37:28
  TRACK 43 AUDIO
    TITLE "0:"
    INDEX 01 00:38:49
  TRACK 44 AUDIO
    TITLE "2:cjc046_4507"
    INDEX 01 00:39:60
  TRACK 45 AUDIO
    TITLE "0:"
    INDEX 01 00:41:14
  TRACK 46 AUDIO
    TITLE "3:cjc046_4508"
    INDEX 01 00:41:32
  TRACK 47 AUDIO
    TITLE "0:"
    INDEX 01 00:43:05
  TRACK 48 AUDIO
    TITLE "4:cjc046_4509"
    INDEX 01 00:43:23
  TRACK 49 AUDIO
    TITLE "0:"
    INDEX 01 00:44:52
  TRACK 50 AUDIO
    TITLE "2:cjc046_4510"
    INDEX 01 00:45:63
  TRACK 51 AUDIO
    TITLE "0:"
    INDEX 01 00:47:03
  TRACK 52 AUDIO
    TITLE "3:cjc046_4511"
    INDEX 01 00:47:23
  TRACK 53 AUDIO
    TITLE "0:"
    INDEX 01 00:49:12
  TRACK 54 AUDIO
    TITLE "4:cjc046_4512"
    INDEX 01 00:49:25
  TRACK 55 AUDIO
    TITLE "0:"
    INDEX 01 00:50:42
  TRACK 56 AUDIO
    TITLE "2:cjc046_4513"
    INDEX 01 00:51:50
  TRACK 57 AUDIO
    TITLE "0:"
    INDEX 01 00:52:61
  TRACK 58 AUDIO
    TITLE "3:cjc046_4514"
    INDEX 01 00:53:04
  TRACK 59 AUDIO
    TITLE "0:"
    INDEX 01 00:54:15
  TRACK 60 AUDIO
    TITLE "4:cjc046_4515"
    INDEX 01 00:54:34
  TRACK 61 AUDIO
    TITLE "0:"
    INDEX 01 00:55:46
  TRACK 62 AUDIO
    TITLE "2:cjc046_4516"
    INDEX 01 00:56:55
  TRACK 63 AUDIO
    TITLE "0:"
    INDEX 01 00:57:58
  TRACK 64 AUDIO
    TITLE "3:cjc046_4517"
    INDEX 01 00:58:03
  TRACK 65 AUDIO
    TITLE "0:"
    INDEX 01 00:59:16
  TRACK 66 AUDIO
    TITLE "4:cjc046_4518"
    INDEX 01 00:59:30
  TRACK 67 AUDIO
    TITLE "0:"
    INDEX 01 01:00:31
  TRACK 68 AUDIO
    TITLE "2:cjc046_4519"
    INDEX 01 01:01:42
  TRACK 69 AUDIO
    TITLE "0:"
    INDEX 01 01:02:54
  TRACK 70 AUDIO
    TITLE "3:cjc046_4520"
    INDEX 01 01:02:69
  TRACK 71 AUDIO
    TITLE "0:"
    INDEX 01 01:04:07
  TRACK 72 AUDIO
    TITLE "4:cjc046_4521"
    INDEX 01 01:04:23
  TRACK 73 AUDIO
    TITLE "0:"
    INDEX 01 01:05:36
  TRACK 74 AUDIO
    TITLE "2:cjc046_4522"
    INDEX 01 01:06:42
  TRACK 75 AUDIO
    TITLE "0:"
    INDEX 01 01:07:49
  TRACK 76 AUDIO
    TITLE "3:cjc046_4523"
    INDEX 01 01:07:66
  TRACK 77 AUDIO
    TITLE "0:"
    INDEX 01 01:09:42
  TRACK 78 AUDIO
    TITLE "4:cjc046_4524"
    INDEX 01 01:09:61
  TRACK 79 AUDIO
    TITLE "0:"
    INDEX 01 01:10:69
  TRACK 80 AUDIO
    TITLE "2:cjc046_4525"
    INDEX 01 01:11:74
  TRACK 81 AUDIO
    TITLE "0:"
    INDEX 01 01:13:16
  TRACK 82 AUDIO
    TITLE "3:cjc046_4526"
    INDEX 01 01:13:36
  TRACK 83 AUDIO
    TITLE "0:"
    INDEX 01 01:14:39
  TRACK 84 AUDIO
    TITLE "4:cjc046_4527"
    INDEX 01 01:14:55
  TRACK 85 AUDIO
    TITLE "0:"
    INDEX 01 01:15:70
  TRACK 86 AUDIO
    TITLE "2:cjc046_4528"
    INDEX 01 01:16:73
  TRACK 87 AUDIO
    TITLE "0:"
    INDEX 01 01:18:11
  TRACK 88 AUDIO
    TITLE "3:cjc046_4529"
    INDEX 01 01:18:29
  TRACK 89 AUDIO
    TITLE "0:"
    INDEX 01 01:19:36
  TRACK 90 AUDIO
    TITLE "4:cjc046_4530"
    INDEX 01 01:19:48
  TRACK 91 AUDIO
    TITLE "0:"
    INDEX 01 01:20:61
  TRACK 92 AUDIO
    TITLE "2:cjc046_4531"
    INDEX 01 01:21:69
  TRACK 93 AUDIO
    TITLE "0:"
    INDEX 01 01:23:22
  TRACK 94 AUDIO
    TITLE "3:cjc046_4532"
    INDEX 01 01:23:40
  TRACK 95 AUDIO
    TITLE "0:"
    INDEX 01 01:24:67
  TRACK 96 AUDIO
    TITLE "4:cjc046_4533"
    INDEX 01 01:25:09
  TRACK 97 AUDIO
    TITLE "0:"
    INDEX 01 01:26:40
